<svg width="180" height="180" viewBox="0 0 180 180" fill="none" xmlns="http://www.w3.org/2000/svg">
<path fill-rule="evenodd" clip-rule="evenodd" d="M180 90C180 139.706 139.706 180 90 180C40.2944 180 0 139.706 0 90C0 40.2944 40.2944 0 90 0C139.706 0 180 40.2944 180 90ZM43.9886 91.5666L100.973 29.6764C101.205 29.4239 101.519 29.261 101.859 29.2159C102.199 29.1707 102.544 29.2463 102.835 29.4294C103.125 29.6125 103.342 29.8915 103.447 30.218C103.553 30.5444 103.541 30.8976 103.413 31.2161L86.9398 72.2721C86.7735 72.6865 86.712 73.1356 86.7608 73.5795C86.8096 74.0233 86.9671 74.4483 87.2195 74.8168C87.4718 75.1852 87.8111 75.4857 88.2074 75.6916C88.6037 75.8975 89.0446 76.0025 89.4911 75.9972L132.274 75.4919C132.656 75.4873 133.031 75.5947 133.353 75.8006C133.675 76.0066 133.93 76.3022 134.086 76.6511C134.243 76.9999 134.294 77.3869 134.233 77.7643C134.172 78.1417 134.002 78.493 133.744 78.7751L70.3795 148.08C70.1887 148.289 69.9302 148.423 69.6498 148.459C69.3694 148.496 69.0852 148.431 68.8476 148.278C68.6101 148.125 68.4345 147.892 68.352 147.622C68.2696 147.351 68.2855 147.06 68.3971 146.801L90.8846 94.4497H45.2531C44.9192 94.4497 44.5925 94.3524 44.313 94.1698C44.0334 93.9871 43.8131 93.727 43.679 93.4212C43.5449 93.1154 43.5028 92.7772 43.5577 92.4478C43.6127 92.1184 43.7625 91.8122 43.9886 91.5666Z" fill="#FFBA00"/>
</svg>
